<svg width="26" height="26" viewBox="0 0 26 26" fill="none" xmlns="http://www.w3.org/2000/svg">
<path d="M15.2739 13.009L25.3857 2.89718C26.0139 2.26948 26.0139 1.25101 25.3857 0.623308C24.7574 -0.00492905 23.74 -0.00492905 23.1118 0.623308L13 10.7351L2.88763 0.623308C2.25939 -0.00492905 1.24199 -0.00492905 0.613756 0.623308C-0.014481 1.25101 -0.014481 2.26948 0.613756 2.89718L10.7261 13.009L0.613756 23.1208C-0.014481 23.7485 -0.014481 24.767 0.613756 25.3947C0.927874 25.7083 1.33955 25.8653 1.75069 25.8653C2.16183 25.8653 2.57351 25.7083 2.88763 25.3942L13 15.2823L23.1118 25.3942C23.4259 25.7083 23.8376 25.8653 24.2487 25.8653C24.6599 25.8653 25.0716 25.7083 25.3857 25.3942C26.0139 24.7665 26.0139 23.748 25.3857 23.1203L15.2739 13.009Z" fill="#E74C3C"/>
</svg>
